<svg width="80" height="80" viewBox="0 0 80 80" fill="none" xmlns="http://www.w3.org/2000/svg">
<path d="M30.0001 16.6667H23.3334C19.6515 16.6667 16.6667 19.6514 16.6667 23.3333V63.3333C16.6667 67.0152 19.6515 70 23.3334 70H56.6667C60.3486 70 63.3334 67.0152 63.3334 63.3333V23.3333C63.3334 19.6514 60.3486 16.6667 56.6667 16.6667H50.0001M30.0001 16.6667C30.0001 20.3486 32.9848 23.3333 36.6667 23.3333H43.3334C47.0153 23.3333 50.0001 20.3486 50.0001 16.6667M30.0001 16.6667C30.0001 12.9848 32.9848 10 36.6667 10H43.3334C47.0153 10 50.0001 12.9848 50.0001 16.6667M40.0001 40H50.0001M40.0001 53.3333H50.0001M30.0001 40H30.0334M30.0001 53.3333H30.0334" stroke="white" stroke-width="4" stroke-linecap="round"/>
</svg>
