<svg width="185" height="51" viewBox="0 0 185 51" fill="none" xmlns="http://www.w3.org/2000/svg">
<g clip-path="url(#clip0_71_186)">
<g opacity="0.8">
<path d="M29.0375 13.4496C29.0361 14.4517 28.7818 15.4371 28.2984 16.3146C27.8149 17.192 27.1179 17.9329 26.2721 18.4687C23.3177 20.3296 18.5839 23.3175 15.0477 25.4999C13.9747 24.838 13.0038 24.248 12.2369 23.7903C5.49318 19.7357 0 16.7137 0 22.7426V13.4496C0 11.8747 0.624916 10.3643 1.73727 9.25072C2.84963 8.1371 4.35831 7.51148 5.93142 7.51148H23.1061C23.8852 7.51098 24.6567 7.66423 25.3766 7.96248C26.0964 8.26072 26.7505 8.6981 27.3014 9.24961C27.8523 9.80112 28.2891 10.4559 28.587 11.1766C28.885 11.8973 29.038 12.6697 29.0375 13.4496Z" fill="white"/>
</g>
<g opacity="0.6">
<path d="M29.0375 37.5541C29.0385 38.3343 28.8858 39.1071 28.5881 39.8282C28.2904 40.5494 27.8536 41.2046 27.3027 41.7565C26.7518 42.3084 26.0975 42.7462 25.3774 43.0446C24.6573 43.3431 23.8855 43.4965 23.1061 43.496H5.93143C5.15218 43.496 4.38057 43.3423 3.6607 43.0436C2.94082 42.745 2.28677 42.3072 1.73594 41.7554C1.18511 41.2036 0.748279 40.5485 0.450419 39.8277C0.152559 39.1068 -0.00049513 38.3342 1.20329e-06 37.5541V28.2611C1.20329e-06 35.3263 5.49318 31.2869 12.2369 27.2134C12.9925 26.7557 13.9747 26.1657 15.0477 25.5C18.5839 27.6861 23.3177 30.6704 26.2721 32.5274C27.1186 33.0624 27.8162 33.8032 28.2998 34.6808C28.7833 35.5584 29.0371 36.5442 29.0375 37.5465V37.5541Z" fill="white"/>
</g>
<path d="M15.0477 25.4999C13.9785 26.1656 13.0038 26.7556 12.2369 27.2322C5.49318 31.2679 0 35.3262 0 28.261V22.7426C0 16.7137 5.49318 19.7168 12.2369 23.7903C13.0038 24.248 13.9785 24.838 15.0477 25.4999Z" fill="white"/>
<path d="M68.6005 28.2421H45.4982C45.7527 30.1418 46.7066 31.8778 48.173 33.1099C49.6187 34.3127 51.4674 34.914 53.7191 34.914C55.0035 34.9331 56.2785 34.6931 57.4682 34.2083C58.658 33.7236 59.7381 33.004 60.6441 32.0925L66.6889 34.9405C65.3206 36.9665 63.4585 38.6094 61.2788 39.7137C59.1707 40.7425 56.6684 41.2569 53.772 41.2569C49.2712 41.2569 45.609 39.8373 42.7856 36.9981C39.9622 34.1589 38.5455 30.5985 38.5354 26.317C38.5354 21.9396 39.9446 18.3049 42.763 15.4127C45.5813 12.5205 49.115 11.0745 53.364 11.0745C57.8749 11.0745 61.5445 12.5205 64.373 15.4127C67.2014 18.3049 68.6157 22.125 68.6157 26.873L68.6005 28.2421ZM61.4224 22.5688C60.9606 20.9843 59.9698 19.6065 58.6153 18.6655C57.1944 17.6548 55.4883 17.1248 53.7455 17.1526C51.845 17.116 49.9856 17.709 48.4564 18.8394C47.5068 19.5429 46.6253 20.7823 45.8118 22.5574L61.4224 22.5688Z" fill="#FCFCFC"/>
<path d="M95.5828 11.8156H102.761V50.9998H95.5828V37.4744C94.363 38.6851 92.933 39.6631 91.3628 40.3603C89.907 40.9588 88.3463 41.2597 86.7726 41.2454C83.0702 41.2454 79.869 39.8081 77.169 36.9336C74.469 34.0591 73.114 30.4848 73.1039 26.2109C73.1039 21.7831 74.4111 18.1534 77.0254 15.3217C79.6398 12.4901 82.8145 11.0743 86.5497 11.0743C88.2128 11.0628 89.8603 11.395 91.3893 12.0501C92.9641 12.7435 94.3885 13.7379 95.5828 14.9776V11.8156ZM88.0269 17.7197C86.9889 17.694 85.9574 17.8914 85.002 18.2985C84.0466 18.7056 83.1895 19.313 82.4884 20.0798C81.0175 21.6532 80.282 23.6704 80.282 26.1314C80.282 28.5924 81.0313 30.6311 82.5299 32.2474C83.2224 33.0169 84.071 33.6295 85.019 34.0443C85.9669 34.4592 86.9924 34.6666 88.0269 34.6529C89.077 34.6811 90.121 34.4853 91.0896 34.0784C92.0583 33.6714 92.9293 33.0627 93.6447 32.2927C95.1333 30.7193 95.8775 28.658 95.8775 26.1087C95.8775 23.6125 95.1333 21.5952 93.6447 20.0571C92.9236 19.296 92.051 18.6948 91.0833 18.2921C90.1157 17.8895 89.0745 17.6945 88.0269 17.7197Z" fill="#FCFCFC"/>
<path d="M110.007 11.8157H117.28V25.6323C117.28 28.3227 117.464 30.1912 117.831 31.2376C118.158 32.2125 118.782 33.0604 119.615 33.662C120.506 34.2625 121.563 34.5669 122.637 34.5319C123.718 34.565 124.784 34.2653 125.69 33.6734C126.561 33.0533 127.212 32.1708 127.548 31.1544C127.851 30.3298 128 28.5648 127.998 25.8592V11.8157H135.176V23.9719C135.176 28.9821 134.781 32.4101 133.99 34.2558C133.13 36.3784 131.641 38.1866 129.724 39.4375C127.843 40.6403 125.45 41.2429 122.546 41.2454C119.403 41.2454 116.862 40.5419 114.922 39.1349C112.946 37.6805 111.505 35.6128 110.823 33.2535C110.264 31.5137 109.983 28.3492 109.981 23.7601L110.007 11.8157Z" fill="#FCFCFC"/>
<path d="M145.214 -8.08414e-05C145.823 -0.0105877 146.427 0.106076 146.989 0.342469C147.55 0.578862 148.056 0.929794 148.475 1.37288C148.913 1.80541 149.26 2.32293 149.492 2.89388C149.725 3.46483 149.839 4.07723 149.827 4.6937C149.836 5.30412 149.72 5.90991 149.488 6.47427C149.255 7.03863 148.91 7.54979 148.475 7.97671C148.063 8.41217 147.566 8.75762 147.015 8.99131C146.463 9.225 145.87 9.34186 145.271 9.33454C144.658 9.34311 144.051 9.22377 143.487 8.98412C142.923 8.74447 142.415 8.38978 141.995 7.94267C141.555 7.50237 141.208 6.97755 140.976 6.39973C140.744 5.82191 140.63 5.20302 140.643 4.58024C140.633 3.97683 140.747 3.37781 140.978 2.82027C141.208 2.26272 141.551 1.75851 141.984 1.33884C142.402 0.906241 142.905 0.564199 143.46 0.333892C144.016 0.103584 144.613 -0.0100862 145.214 -8.08414e-05V-8.08414e-05ZM141.618 11.8157H148.796V40.5041H141.618V11.8157Z" fill="#FCFCFC"/>
<path d="M162.48 11.8156V14.9776C163.685 13.7413 165.117 12.7476 166.696 12.0501C168.227 11.3947 169.877 11.0625 171.543 11.0743C175.283 11.0743 178.462 12.4901 181.078 15.3218C183.695 18.1534 185.003 21.7831 185 26.2109C185 30.4974 183.649 34.0717 180.946 36.9336C178.244 39.7955 175.039 41.2328 171.331 41.2454C169.751 41.2593 168.185 40.9584 166.722 40.3603C165.143 39.6667 163.705 38.6885 162.48 37.4745V50.9998H155.343V11.8156H162.48ZM170.035 17.7197C168.986 17.6919 167.943 17.8845 166.973 18.2852C166.003 18.6858 165.127 19.2856 164.402 20.0458C162.909 21.5915 162.163 23.6087 162.166 26.0974C162.166 28.6467 162.911 30.708 164.402 32.2814C165.122 33.0515 165.996 33.6601 166.968 34.0669C167.94 34.4737 168.986 34.6696 170.039 34.6415C171.081 34.6596 172.115 34.4547 173.071 34.0405C174.028 33.6263 174.885 33.0124 175.585 32.2398C177.096 30.6412 177.852 28.6025 177.852 26.1239C177.852 23.6452 177.114 21.628 175.638 20.0723C174.927 19.3024 174.059 18.694 173.094 18.2882C172.128 17.8824 171.086 17.6885 170.039 17.7197H170.035Z" fill="#FCFCFC"/>
</g>
<defs>
<clipPath id="clip0_71_186">
<rect width="185" height="51" fill="white"/>
</clipPath>
</defs>
</svg>
